<?xml version="1.0" encoding="utf-8"?>
<!-- Generator: Adobe Illustrator 22.0.0, SVG Export Plug-In . SVG Version: 6.00 Build 0)  -->
<svg version="1.1" id="Layer_1" xmlns="http://www.w3.org/2000/svg" xmlns:xlink="http://www.w3.org/1999/xlink" x="0px" y="0px"
	 viewBox="0 0 300 248.1" style="enable-background:new 0 0 300 248.1;" xml:space="preserve">
<style type="text/css">
	.st0{fill:#312783;}
	.st1{fill:#662483;}
	.st2{font-family:'Raleway-SemiBoldItalic';}
	.st3{font-size:15.8769px;}
	.st4{font-family:'Raleway-ExtraBoldItalic';}
	.st5{fill:none;stroke:#662483;stroke-width:3;stroke-miterlimit:10;}
</style>
<g>
	<g>
		<path class="st0" d="M99.2,30.1c-0.3,0.6-0.6,1.3-1,1.9c-0.3,0.6-0.7,1.1-1.2,1.9c0.3,1.6-0.1,3.4-1.2,5.1
			c-0.2,0.3-0.1,0.9-0.2,1.7c0.6-0.7,1-1.2,1.4-1.6c0.5,0.8,0.9,1.4,1.3,2c0.6-0.3,1.2-0.8,1.9-1c0.3-0.1,0.8,0.3,1.2,0.8
			c0.3-0.1,0.6-0.2,1-0.4c-0.2-0.4-0.3-0.7-0.5-1.3c0.5-0.3,1-0.7,1.6-0.9c0,0,0.4,0.6,0.7,1.1c2.2-0.2,4.7-0.5,7.1-0.7
			c1,0,2.1,0.2,2.9,0.6c0.8,0.4,1.5,1.1,2.2,1.8c1.1,1,1.2,1.8,0.5,3.1c-0.4,0.8-0.8,1.6-1.2,2.4c-0.1,0-0.3-0.1-0.4-0.1
			c0.2,0.4,0.4,0.9,0.6,1.3c-0.5,0.5-0.9,1.1-1.6,1.8c-0.1-0.4-0.1-0.7-0.3-0.9c-0.2-0.3-0.5-0.6-0.9-0.7c-0.2-0.1-0.5,0.2-0.8,0.4
			c-1,0.5-1.9,1.3-2.9,1.4c-0.4,0.1-1.4-0.4-2-0.7c-1.4-0.7-1.6,0.3-2.3,1.1c2.5,1,4.8,0.1,7.1-0.5c0,0.1,0,0.2,0,0.3
			c-0.9,0.6-1.6,1.3-2.6,1.7c-0.8,0.4-1.8,0.4-2.6,0.5c-0.9,0-1.9-0.2-2.9-0.3c-1.3-0.2-2.4-0.6-3.3-1.8c-0.3-0.4-1.1-0.4-1.7-0.6
			c-0.6-0.2-1.2-0.2-1.6-0.5c-0.6-0.5-1.1-0.5-1.6-0.1c-0.8,0.6-1.5,0.3-2.4,0.2c-0.8-0.1-1.8-0.2-2.3,0.2c-0.5,0.5-1.6,1.3-0.6,2.4
			c0.1,0.1,0,0.5,0,0.9c0.3-0.1,0.6-0.3,0.9-0.4c-0.1-0.6-0.3-1.1-0.4-1.6c0.2-0.1,0.4-0.1,0.5-0.2c0.4,0.9,0.7,1.9,1.3,2.6
			c0.9,0.9,0.9,1.8,0.9,2.9c0,1,0.3,2,1.3,2.5c0.2,0.1,0.4,0.3,0.5,0.5c0.4,0.4,0.7,1.2,1,1.2c1.1-0.1,1.4,0.8,2,1.4
			c0.9,0.8,1.8,1.7,2.6,2.5c-0.1,0.6-0.2,1.2-0.4,1.9c0.3,0,0.6,0.1,1,0.1c0.1,0.5,0.2,1.2,0.3,1.6c0.7,0.3,1.3,0.7,1.9,0.8
			c0.4,0.1,1.2-0.3,1.2-0.5c-0.1-3,1.6-5,3.6-6.8c0.4-0.4,0.9-0.8,1.3-1.2c0.1,0.1,0.2,0.2,0.3,0.2c-0.4,0.7-0.9,1.3-1.2,2
			c-0.4,0.8-0.9,1.7,0,2.1c2-0.5,3.8-0.9,5.4-1.2c-0.5-1.5-1-2.8-1.4-4.1c-0.1-0.4,0-1,0.2-1.3c0.2-0.2,0.8,0,1.2,0
			c0.7,0.1,1.5,0.4,2.2,0.3c0.6-0.1,1.3-0.6,1.5-1.1c0.6-1,2.4-2.1,3.4-1.4c1.5,1.1,3.1,0.5,4.6,0.7c0.4,0.1,0.7,0.4,1,0.7
			c0,0,0,0.1,0,0.1c0,3.4,2.2,5.9,3.4,8.7c0.6,1.5,0.3,2.9,0.2,4.4c-0.1,2.1-0.5,4.1-0.7,6.2c0,0.2-0.1,0.5-0.4,0.8
			c-0.3-1-0.6-1.9-1-2.9c-0.1-0.4-0.3-0.8-0.7-1c-2.4-1.5-4.9-2.9-8-2.6c-2.5,0.3-5,0.3-7.5,0.4c-0.7,0-1.4,0-2.1-0.2
			c-1.1-0.3-1.6,0.2-1.7,1.1c-0.2,1.1-0.1,2.2-0.2,3.2c2,0.1,4.3,1.4,4.7,2.5c0.2-0.1,0.5-0.2,0.7-0.2c0.4,0.1,0.9,0.3,1.2,0.5
			c0.1,0.1-0.2,0.6-0.3,1c-0.2,0.4-0.5,0.8-0.7,1.1c0.5,0.1,1,0.2,1.6,0.3c1-0.8,1.4-0.8,2,0.3c0.7-0.2,1.3-0.5,2.1-0.7
			c0.4-1.1-0.1-2.1-1.3-2.8c0.1-0.4,0.3-0.8,0.5-1.4c-0.9-0.2-1.7-0.3-2.6-0.5c0-0.2,0-0.5,0.2-0.8c0.2-0.4,0.5-0.8,0.8-1.1
			c0.2-0.2,0.7-0.5,0.9-0.4c1.2,1,2.7-0.1,3.9,0.6c0.2,0.1,0.6-0.1,0.9,0c1,0.2,2.4-0.2,2.6,1.2c0.3,1.2,0,2.5-0.9,3.5
			c-0.4,0.4-0.7,0.9-1.2,1.4c-0.2-0.3-0.3-0.6-0.4-0.9c-0.8,1.5-0.2,3,1.2,3.5c0.3,0.1,0.6,0.6,0.8,0.6c0.6-0.1,1.4,0.1,1.7-0.9
			c0.2-0.5,0.9-1,1.5-1.2c1.7-0.6,2.6-1.9,2.7-3.6c0-1,0.7-1.9,1-2.9c0.2-0.9,1.2-1.6,0.8-2.8c-0.1-0.3,0.4-0.9,0.6-1.4
			c0.3,0.4,0.8,0.8,0.7,1.2c-0.3,4.1-0.7,8.2-1.1,12.3c-0.2,1.7-0.4,3.3-0.9,4.9c-0.3,0.9-1,1.8-1.8,2.4c-2,1.4-4.1,2.5-6.1,3.7
			c-0.3,0.2-0.6,0.6-0.6,0.9c0,2,0.1,3.9,0.1,5.9c0,1.5,0,2.9-0.4,4.3c-0.4,1.6,0.4,2.8,1,4.1c0.7,1.4,1.2,2.8,1.7,4.3
			c0.1,0.3-0.1,0.7-0.2,1.3c-1-1.5-1.7-2.7-2.5-4c-0.1,0.1-0.2,0.1-0.4,0.2c0.3,0.8,0.5,1.6,0.8,2.4c0.6,1.4-0.3,2.5-0.8,3.7
			c-0.2,0.5-0.4,1.1-0.8,1.5c-0.3,0.4-0.7,0.7-1,1c-0.6,0.5-1.2,1-1.8,1.6c-0.6,0.5-1.1,1.5-1.7,1.6c-3,0.5-5.9,0.9-8.9,1.2
			c-1.5,0.1-2.2-1.1-2.9-2.2c-1-1.6-2.2-2.2-4-2c-1.6,0.2-3.8-1.4-4.2-2.9c-0.4-1.1-0.8-1.2-1.7-0.5c-0.6,0.5-1.2,0.9-1.6,1.2
			c-0.9-0.3-1.7-0.5-2.5-0.8c-0.7-0.4-1.4-0.9-2-1.4c-0.9-0.7-1.8-1.7-2.8-2c-1.5-0.4-2.3-2.1-4.2-1.9c-1,0.1-2.5-1.2-3.2-2.2
			c-1.3-1.9-3.4-2.6-4.9-4.1c-0.4-0.3-0.9-0.6-1.2-1c-0.7-0.8-1.4-1-2.4-0.9c-0.5,0-1.1-0.7-1.5-1.2c-0.3-0.4-0.3-1-0.4-1.5
			c0.4,0,0.8-0.2,1.1-0.1c1.4,0.3,2.8,0.8,4.2,0.8c0.8,0,1.7-0.7,2.5-1.2c0.4-0.2,0.7-0.7,1.1-0.8c1.2-0.3,1.4-1.4,2.1-2.2
			c0.3-0.3,0.5-0.7,1.2-1.2C81,95.7,80.5,94.8,80,94c-0.1-0.2-0.3-0.5-0.3-0.8c0.2-1.6-0.9-2.3-1.9-3.2c-0.9-0.9-1.5-2.1-2.2-3.1
			c-0.3-0.4-0.6-0.6-0.9-0.9c-1.4-1.4-2.3-3.1-2.8-5.1c-1.8-0.6-2.6-2.3-3.9-3.6c-0.9-0.9-1.7-2-2.5-3c-0.4-0.5-0.6-1.2-0.8-1.8
			c-0.6-1.5-1.3-3-1.9-4.6c-0.5-1.2-1-2.5-1.4-3.7c-0.4-1.3-0.8-2.7-1.2-4c-0.1-0.4-0.2-0.8-0.3-1.2c-0.3-1.4-0.6-2.8-1-4.2
			c-0.4-1.3-0.9-2.6-1.3-3.9c-0.1-0.3-0.1-0.8,0.1-1.1c1-2.1,1.6-4.3,1.4-6.6c-0.1-1,0-2,0.1-3c0.1-2.1,1.6-3.2,2.8-4.7
			c0.6-0.7,1-1.5,1.4-2.4c1-2.8,1.9-6,4.7-7.5c2.1-1.1,3.2-2.9,4.7-4.6c0.9-1,2.4-1.9,3.7-2.1c2.6-0.3,4-2.4,6.1-3.3
			c0.8-0.4,1.8-0.6,2.6-0.9c0.4-0.1,0.8-0.2,1.1-0.5c1.2-1,2.9-1.6,3.2-3.5c0.1-0.4,0.7-0.7,1.1-1.1c1.6-1.4,3.3-2.8,4.9-4.1
			c0.4-0.3,1-0.4,1.5-0.5c1.8-0.2,3.7-0.6,5.5-0.3c1.6,0.2,3.3,0.4,4.7,1.5c1.4,1.1,3.3,1.7,4.7,2.9c1.4,1.2,2.8,0.8,4.4,0.9
			c1.6,0.1,3.3,0.6,4.7,1.5c1.5,1,2.7,2.5,4,3.9c0.4,0.5,0.7,1.1,0.8,1.8c0.3,2.3,0.3,4.5,0.6,6.8c0.2,1.3,0.6,2.6,0.9,4
			c-0.3,0.1-0.6,0.2-1,0.3c0.6,0.8,1.4,1.6,1.9,2.5c0.5,1,0.6,2.1,0.6,3.2c-1.2-1.7-2.5-3.3-3.6-5c-1.6-2.4-3.7-4.4-6.5-5.2
			c-2.9-0.9-6-1.5-8.9-2.2c-0.3-0.1-0.7,0-1,0.1c-1.1,0.5-2.4,0.8-3.3,1.6c-1.1,0.9-3,1.1-3.1,3.1c0,0.2-0.3,0.6-0.6,0.6
			c-0.9,0.2-1.2,0.9-1.3,1.7c0,0.3-0.4,0.5-0.5,0.8c-0.2,0.3-0.2,0.6-0.3,1C99.3,30.1,99.2,30.1,99.2,30.1z M78.6,71.5
			c0.8,0,1.3,0.1,1.8,0c0.4-0.1,0.9-0.4,1.2-0.8c0.1-0.2-0.2-0.7-0.4-1c-0.5-0.6-1.1-1.1-1.4-1.8c-0.4-1.1-1.2-1.2-2.3-1.2
			C77.9,68.4,78.2,70,78.6,71.5z M105.4,69.2c-0.4,0.1-0.7,0.1-1,0.2c-0.3,1.9,1,2.5,2.1,3.2c0.1-0.1,0.2-0.1,0.3-0.2
			C106.4,71.4,105.9,70.4,105.4,69.2z M108,44.9c-1.7-0.8-3.6-0.2-4.4,1.3C105.1,45.7,106.5,45.3,108,44.9z M118.8,67.8
			c0,0.2,0,0.3,0,0.5c1.6,0,3.2,0,4.9,0c-1-1.5-2.3-0.1-3.3-0.4C119.9,67.8,119.3,67.8,118.8,67.8z"/>
		<path class="st0" d="M11,186.6c0.9,0.4,1.9,0.9,2.9,1.2c1.4,0.3,2.9,0.4,4.3,0.7c2.6,0.5,5.1,1,7.6,1.5c0.2,0,0.3,0.1,0.3,0.2
			c-2.2-0.1-4.3-0.3-6.5-0.4c-1.4-0.1-2.8,1.7-2.2,3c0.2,0.4,0.8,0.6,1.4,1c-0.5,0.2-0.8,0.2-1.2,0.4c0.7,0.6,1.4,1.2,2.2,1.8
			c1.3-0.4,2.8-0.9,4.3-1.4c0.1,0.1,0.1,0.2,0.2,0.3c-2.8,1.6-4.9,3.7-4.7,7.2c0.4-0.3,0.8-0.6,1.1-0.9c0.1,0,0.1,0.1,0.2,0.1
			c-0.1,0.4-0.3,0.9-0.4,1.4c0.6-0.1,1.1-0.1,1.7-0.1c-0.1-0.3-0.1-0.6-0.2-1c0.1-0.1,0.1-0.1,0.2-0.2c0.3,0.3,0.7,0.7,1,1
			c0.2,0.1,0.4,0.3,0.5,0.3c1.1,0,2.2,0.2,3.1-0.6c0.2-0.2,0.6-0.2,0.9-0.1c1.2,0.3,2.4,0.8,3.5,1.1c0.2,0,0.4-0.1,0.6-0.2
			c1-0.6,2-1.2,3.1-1.9c0,0.3,0,0.6,0,0.7c1.5-0.2,2.9-0.5,4.5-0.8c0,0-0.1-0.4-0.2-1.1c0.7,0.6,1.1,0.9,1.3,1.1
			c0.8-0.6,1.5-1.3,2.3-1.7c0.1-0.1,0.6,0.6,1.1,1c0.6-0.3,1.4-0.7,2.1-1.1c0.2-0.1,0.4-0.4,0.6-0.6c0.4-0.2,0.7-0.5,1.1-0.6
			c0.4,0,0.8,0.2,1.5,0.4c1.2-1,2.5-3,3.5-5.2c0.1,0,0.2,0,0.3,0c0,0.5-0.1,1-0.1,1.5c0.2,0.3,0.5,0.6,0.9,1
			c0.4-0.3,0.9-0.7,1.5-1.2c0,0.3,0.1,0.6,0.1,0.9c0.6-0.3,1.1-0.6,1.7-1c0.1,0.5,0.2,0.8,0.2,1.2c0.2-0.3,0.4-0.5,0.8-1
			c0.2,0.6,0.3,1,0.6,1.7c0.6-1.4,1.6-1.2,3-0.9c-0.6-0.4-0.9-0.7-1.2-1c0-0.1,0.1-0.2,0.1-0.3c0.4,0,0.8-0.1,1.2-0.1
			c0.2-0.4,0.4-0.9,0.6-1.3c1.3,0.4,2.5,0.9,3.7,1.3c0-2.3,2.4-2.1,3.7-3.2c-0.2-0.2-0.5-0.5-0.8-0.8c0.3-0.2,0.6-0.4,1-0.5
			c-0.1-0.3-0.2-0.6-0.3-0.8c0.1-0.1,0.2-0.2,0.3-0.3c0.4,0.3,0.7,0.6,1.2,1c0.5-0.4,1.7,0.3,1.7-1.1c-0.3,0-0.6-0.1-1.3-0.2
			c0.8-0.6,1.4-0.9,2.1-1.4c-0.1,0.9-0.3,1.8,0.9,1.5c0.3-1.3,0.7-2.6,1-3.9c0.3,0.2,0.5,0.3,0.6,0.4c0.8,0.6,1.3,0.3,1.4-0.6
			c0.1-0.5,0.4-0.9,0.6-1.4c0.1,0,0.3,0.1,0.4,0.1c-0.1,0.4-0.3,0.7-0.3,1.1c0,0.2,0.2,0.4,0.3,0.6c0.2-0.1,0.4-0.2,0.5-0.4
			c0.2-0.5,0.3-1.1,0.5-1.7c0.6-0.1,1.2-0.3,1.9-0.4c0.6-0.1,1.3-0.1,1.6,0.7c0.4,1,0.8,2,1.3,2.9c0.2,0.3,0.4,0.8,0.7,0.9
			c0.9,0.2,1.8,0.3,2.7,0.2c0.5-0.1,1-0.6,1.4-1c0.4-0.3,0.8-0.7,1.2-1c0.2-0.2,0.5-0.3,0.5-0.5c0-1.7,1.3-1.5,2.3-1.5
			c1.1,0,1.8-0.3,1.9-1.5c0.1-1.3-0.3-1.9-1.6-2.2c-0.2,0-0.4,0-0.4-0.1c-1.2-1.3-1.3-1.3-3.2-0.7c0,0-0.1,0.1-0.1,0.1
			c-1.3-1.1-2.6,0.5-3.9,0c-0.3-0.1-0.7,0.2-1,0.2c-0.7-0.1-1.5-0.3-2.2-0.5c0.2-0.9,0.2-1.8,1.4-2c0.6-0.1,1.2-0.5,1.8-0.4
			c1.6,0,3.1,0.2,4.7,0.3c0.8,0,1.5-0.1,2.4-0.2c-0.3-0.7-0.6-1.2-0.8-1.7c-0.1-0.3-0.2-0.7-0.1-0.8c1.1-0.9,0.7-2.4,1.4-3.4
			c0.2-0.4,0.5-0.8,1-1c0,0.5,0,1,0,1.4c1.2,0.4,1.6-0.4,2.1-1.1c0.5-0.7,1-1.3,1.8-2.3c-0.7,0.1-1.1,0.1-1.9,0.2
			c1.2-1,0.5-2.6,2-3.3c0.7-0.3,1.1-1.4,1.6-2.1c0,0,0.1-0.1,0.1-0.1c-0.8-1.8,0.8-2.6,1.5-3.7c0.8-1.2,1.6-2.4,2.7-3.3
			c1.5-1.4,3.1-2.6,3.7-4.6c0.1-0.2,0.3-0.4,0.4-0.6c0.1-0.1,0.2-0.1,0.3-0.2c0.9,1,1.8,2,2.8,3c-0.8,0.6-1.4,1.1-1.9,1.5
			c0.5,1.1,0.8,2.1,1.3,3c0.3,0.5,0.9,0.8,1.3,1.3c0.3,0.3,0.8,0.7,0.7,0.9c-0.1,0.4-0.5,0.9-0.9,1.1c-0.5,0.3-1.1,0.4-1.7,0.7
			c0.6,0.9,0.6,2.1,2.1,1.9c0.1,0,0.5,0.4,0.4,0.6c-0.1,1.2,0.5,2.1,1.5,2.7c0.8,0.5,0.5,1.1,0,1.7c-1.5,1.5-1.5,1.8,0.2,2.7
			c0.2,0.1,0.3,0.3,0.3,0.5c0.3,1,2.2,1.7,2.9,1c0.4-0.5,0.8-1.1,1.1-1.7c0.8-1.6,2.3-2.3,4-2.6c0.2,0,0.3-0.2,0.5-0.2
			c1.9,0.7,2.4-0.5,2.7-2.1c1.3,1.6,2.7,1.2,4.1,0.6c1.6-0.7,3.2-1.6,4.8-2.4c0.9-0.5,1.7-0.9,2.9-0.9c1.3,0,2.6-0.7,4-1.1
			c0.2,0,0.3-0.1,0.5-0.1c0.1,0.1,0.1,0.2,0.2,0.3c-0.7,0.5-1.3,1.2-2.1,1.6c-5.7,2.6-11,5.9-16.2,9.2c-0.5,0.3-0.9,1-1.3,1.5
			c-1.3,1.6-2.5,3.3-4.3,4.5c-1.7,1.2-3.2,2.9-4.7,4.3c-2.5,2.4-5.6,3.9-8.9,5c-1.7,0.6-3.5,1.2-5.2,1.7c-0.9,0.3-2.1,0-2.9,0.4
			c-2.4,1.5-4.9,3-7,4.8c-3.4,2.8-6.6,5.9-9.9,8.8c-3.2,2.8-6.3,5.6-9.5,8.5c-1.6,1.4-3,3.1-4.8,4.3c-1.8,1.3-1.9,3-1.8,4.8
			c0,2.6,0.3,5.2,0.4,7.9c0.1,2.4,0.3,4.8,0.4,7.3c-1.4,0-2.7,0-4.1,0c-15.2,0-30.5,0-45.7,0c-2.5,0-4.9-1.8-5.6-4.3
			c-0.8-2.9-1.5-5.8-2.2-8.8c-0.4-1.7-0.3-3.4,0.2-5.2c0.5-1.7,0.6-3.6,0.8-5.4c0.2-1.7,0.1-3.3,0.2-5c0-0.4,0.5-0.9,0.5-1.2
			c-0.2-1.7,0.1-3.3,0.3-5c0.2-2.2,0.7-4.4,1-6.6C10.3,191.9,10.6,189.3,11,186.6z"/>
		<path class="st0" d="M160.7,199.4c1,1.4,1.9,2.9,2.9,4.3c1.9,2.5,6.1,3.9,9.1,3.2c0.6-0.1,1.3,0.3,1.9,0.6
			c0.4,0.2,0.6,0.7,0.9,1.1c0.8,0.9,1.1,1.7-0.2,2.4c-0.2,0.1-0.1,0.7-0.2,1.1c-0.1,0.7-0.3,1.3-0.4,2c-0.5-0.1-1.2-0.1-1.6-0.3
			c-1.3-1-2.6-1.9-3.6-3.1c-1.7-2.2-6.6-2-7.9,0c-0.3,0.5-0.6,0.7,0,1.3c0.9,1,0.6,2.1,0.1,3.3c-0.4,1-1.4,2-0.1,3.1
			c0.3-0.1,0.6-0.2,1.2-0.4c0.2,0.6,0.5,1.3,0.7,1.9c0.4,0.9,0.9,1.8,1.3,2.7c0.3,0.7,0.6,1.3,0.5,2.3c-0.2,1.2,0.5,2.5,0.8,3.8
			c0,0.2,0.4,0.3,0.6,0.3c1,0.1,1.9,0.3,2.9,0.3c2.7,0,3.2-1,2.8-3.3c-0.2-1.1-0.3-1.8,1-2.5c2.1-1,4-2.5,6-3.7
			c-1,1.5-0.3,3,0.4,4.5c0.1,0.2,0.1,0.5,0,0.7c-0.5,0.9-0.5,1.7-0.1,2.6c0.1,0.2-0.1,0.6-0.3,0.9c-0.9,1.2-1.7,2.4-2.6,3.5
			c-0.9,1-2.1,1.6-2.9,2.6c-1.2,1.6-2.8,1.4-4.5,1.5c-2,0.1-3.5-0.4-4.6-2.1c-0.6-1-1.6-1.8-2.2-2.8c-0.7-1.3-1.4-2.4-3-2.8
			c-0.3-0.1-0.8-0.4-0.9-0.6c-0.6-1.4-1.8-1.5-3-1.9c-5.9-1.8-11.9-3.3-17.5-6.1c-1.5-0.7-2.7-1.8-4-2.8c-0.2-0.1-0.2-0.6-0.2-0.9
			c0.1-2.2,0.4-4.4,0.4-6.6c0-2.4,1-4.5,1.6-6.7c1.5-5.1,3-10.3,4.5-15.4c0.3-1,1-0.6,1.5-0.8c2.4-1.1,4.1-2.7,4.7-5.4
			c0.1-0.5,0.4-1,0.6-1.5c0.2-0.3,0.5-0.6,0.8-0.9c0.1,0,0.2,0,0.4,0.1c0,1.6,0,3.2,0,4.8c1.6,1.2,3.3,2.3,4.8,3.6
			c0.8,0.7,1.6,1.6,2.2,2.6C157.3,192.9,159,196.2,160.7,199.4c-0.2-0.2-0.5-0.5-0.7-0.8c-1.7-2.9-3.5-5.7-5.2-8.6
			c-1.4-2.5-3.7-3.8-6.2-4.8c-1.8-0.7-3.4,0.3-4.2,2.2c-0.5,1.2-1.3,2.2-1.8,3.4c-0.6,1.1-1,2.2-1.6,3.4c1.4,0.2,2.2,1.5,2,2.8
			c0.3,0.3,0.8,0.5,0.9,0.8c0.1,0.4-0.1,0.8-0.1,1.3c0.1,0.1,0.3,0.2,0.4,0.3c0.1-0.3,0.2-0.7,0.3-1c0.1,0.1,0.2,0.1,0.3,0.2
			c-0.2,1.4,0.7,1.7,1.7,1.9c-0.1,1.4,0.2,2.4,1.8,2.7c0.3,0.1,0.5,0.7,0.8,1.2c0.4,0.1,1,0.3,1.5,0.4c0.9,0.2,1.8,0.6,2.6,0.5
			c0.9-0.1,1.2,0,1,0.9c1.1,0.3,2.1,0.5,3,0.8c0,0.1,0.1,0.2,0.1,0.3c-0.3,0.1-0.6,0.2-1,0.4c1.1,0.8,1.7,0.9,2.7,0.4
			c1.3-0.7,2.7-1.3,4.1-1.9c0.6-0.2,1.3-0.1,2.3-0.2C162.7,204.4,161.5,202.1,160.7,199.4z"/>
		<path class="st0" d="M60.7,150.5c0.2,1.8,0.5,3.5,0.5,5.3c0.1,2.3,0,4.7-0.1,7c-0.1,2.5-0.4,5.1-0.6,7.6c0,0.8,0.2,1.7,0.4,2.5
			c0.2,0,0.3,0,0.5,0c0-1.6,0-3.1,0-4.7c0.2,0,0.4-0.1,0.6-0.1c0.7,1.4,1.4,2.8,2,4.3c0.8,1.9,1.4,3.9,3.4,5
			c0.2,0.1,0.3,0.5,0.4,0.8c0.3,0.6,0.6,1.1,1,1.7c0.2,0,0.3,0.1,0.5,0.1c-0.6,0.6-1.1,1.3-1.8,1.7c-3.1,1.8-6.3,3.5-9.5,5.2
			c-1.4,0.7-1.9,0.5-1.8-1.1c0.2-2.7,0.6-5.3,0.9-8c0.3-3.1,0.5-6.1,0.9-9.2c0.3-2.1,0.9-4.1,1.1-6.1c0.5-3.4,0.8-6.9,1.2-10.3
			c0.1-0.6,0.2-1.1,0.2-1.7C60.5,150.4,60.6,150.5,60.7,150.5z"/>
		<path class="st0" d="M119.9,45c0.7-0.1,0.9-0.1,1.2-0.2c0.1-0.1,0.1-0.2,0.2-0.2c-0.4-0.2-0.7-0.4-1.1-0.6
			c0.3-0.9,0.6-1.5,0.9-2.2c0.1-0.2,0.2-0.4,0.4-0.5c2.1-0.2,4.1-1.2,6.3-0.7c1.7,0.4,2.2-0.2,1.8-1.9c-0.3-1.1-0.6-2.3-0.7-3.4
			c1.1,3.3,2.7,6.5,2.7,10c0,3.3,0.6,6.8-1.6,9.8c-3.2-0.3-3.9-0.7-4.2-2.8c0.8,0.2,1.5,0.4,2.4,0.6c-0.2-0.8-1.8-0.1-1.1-1.4
			c-0.8-0.3-1.5-0.6-2.3-1c0.1-0.4,0.1-0.8,0.2-1.3c-0.5,0.1-0.9,0.1-1.3,0.2C122.3,48,121.2,46.6,119.9,45z M130.5,48.2
			c-0.1-1.2,0.1-2.3-1.2-2.7c-0.9-0.2-1.9-0.8-3.1,0C127.6,46.5,129,47.3,130.5,48.2z"/>
		<path class="st0" d="M146.2,142.1c-1.9,0.8-3.8,1.6-5.8,2.3c-2,0.7-4.1,1.3-6.2,2c-1.8,0.6-3.8,0.9-5.4,2c-1.6,1.1-3.3,1.5-5.1,2
			c-1.4,0.3-2.8,0.9-4.2,1.3c-1.2,0.3-2.2-0.4-2.9-1.2c-0.4-0.4-0.5-1,0.2-1.9c1-1.2,2-0.6,3-0.8c1.7-0.3,3.2-0.7,4.5-1.9
			c0.3-0.3,1-0.3,1.6-0.4c-0.1-0.3-0.2-0.7-0.5-1.5c1.3,1,2.8-0.4,3.8,1.2c0.1,0.2,1.1,0.1,1.5-0.1c1.6-0.7,3.1-1.6,4.8-2.2
			c0.9-0.3,2-0.1,2.9-0.3c1.9-0.4,4,0.2,5.8-0.8c0.4-0.3,1.1-0.1,1.7-0.2C146.1,141.7,146.2,141.9,146.2,142.1z"/>
		<path class="st0" d="M153,148.4c-2.5,2-5.4,3-8.3,3.7c-0.3,0.1-0.5,0.2-0.8,0.3c-2.8,1-5.6,1.7-8.5,1.9c-1.9,0.1-3.9,0.4-5.8,1
			c-2.4,0.8-4.6,1.9-6.9,2.9c-1.5,0.7-2.4,0.3-2.8-1c1.6-0.9,3.1-2.1,4.7-2.7c1.2-0.5,2.7-0.3,4.1-0.5c0.5-0.1,0.9-0.3,1.3-0.6
			c0.7-0.4,1.2-0.9,2.2-0.4c1.7,0.8,3.3,0.7,5-0.1c2.4-1.2,4.8-2.3,7.3-3.2c1.3-0.5,2.7-0.3,4.1-0.5c1.1-0.2,2.3-0.4,3.4-0.6
			C152.4,148.4,152.7,148.4,153,148.4z"/>
		<path class="st0" d="M52,189.1c0.6-4.1,1.1-8.1,1.6-12.3c1.4,0.8,1.3,2.1,1.6,3.2c0.6,2.4-0.3,4.7-0.8,7
			C54.1,188.4,53.7,188.7,52,189.1z"/>
		<path class="st0" d="M52.6,162.1c1.2,2.9,2.4,5.8,3.6,8.8c0.4,0.9,0.6,2,0.6,3c0.1,1.1-0.1,2.2-0.1,3.3c-0.2,0-0.4,0-0.6,0.1
			c-0.2-1-0.6-2.1-0.7-3.1c-0.2-3.3-0.7-6.5-2.4-9.5C52.7,163.9,52.8,163,52.6,162.1C52.7,162.1,52.6,162.1,52.6,162.1z"/>
		<path class="st0" d="M128.3,161.4c-1.8,0.9-3.5,1.9-5.3,2.7c-0.4,0.2-1-0.4-1.6-0.6c0.3-0.5,0.6-1,1-1.4c0.4-0.4,1.1-0.4,1.6-0.8
			C125.6,160.3,127.4,160.3,128.3,161.4z"/>
		<path class="st0" d="M151.2,155.4c-0.3,0.2-0.6,0.5-0.9,0.7c-1.5,0.6-3,1.3-4.5,1.7c-1.3,0.4-0.8-0.9-1.1-1.5
			c1.2-0.2,2.3-0.5,3.4-0.7c1-0.2,2.1-0.3,3.1-0.5C151.2,155.3,151.2,155.4,151.2,155.4z"/>
		<path class="st0" d="M118.7,51.2c-0.5,0.2-1.1,0.3-1.7,0.6c-0.1-0.2-0.2-0.5-0.2-0.6c-0.6-0.1-1.4,0-1.5-0.2
			c-0.4-1,0.4-1.6,0.9-2.3c1,0.8,1.9,1.5,2.9,2.2C119,51,118.8,51.1,118.7,51.2z"/>
		<path class="st0" d="M176.5,212.8c0.7,0.6,1.7,0.8,2,2c0.1,0.6,1,1,1.6,1.5c-1.2-0.4-2.5-0.7-3.6-1.4c-0.4-0.2-0.2-1.3-0.3-1.9
			C176.3,212.9,176.4,212.8,176.5,212.8z"/>
		<path class="st0" d="M141.6,181.4c0.8,0.2,1.4,0.4,2.1,0.6c-0.8,1.1-1.5,2.1-2.5,3.5C141.4,183.9,141.5,182.6,141.6,181.4z"/>
		<path class="st0" d="M186.1,229c-1.1-1.6,0.7-2.7,0.3-4.2c0.2-0.1,0.3-0.1,0.5-0.2c0.1,0.3,0.4,0.6,0.4,0.8
			C186.9,226.6,186.5,227.8,186.1,229z"/>
		<path class="st0" d="M121.5,165.1c-1.1,0.8-2.2,1.5-3.3,2.4C118.2,166,118.4,165.8,121.5,165.1z"/>
		<path class="st0" d="M129.4,160.4c0.5-0.4,0.9-0.8,1.4-1.2c0.3,0.3,0.7,0.5,1,0.8C130.8,161.2,130.7,161.2,129.4,160.4z"/>
	</g>
</g>
<path class="st1" d="M259.4,43.8v-32h14.7c1.6,0,3,0.3,4.3,1c1.3,0.6,2.5,1.5,3.4,2.5c0.9,1,1.7,2.2,2.2,3.6c0.5,1.3,0.8,2.7,0.8,4
	c0,1.9-0.4,3.6-1.2,5.2c-0.8,1.6-1.9,2.9-3.4,3.9l6.8,11.8h-9.9l-5.6-9.8h-3.3v9.8H259.4z M268.2,26.3h5.5c0.5,0,1-0.3,1.5-0.9
	c0.5-0.6,0.7-1.4,0.7-2.5c0-1.1-0.3-2-0.8-2.5c-0.5-0.6-1.1-0.9-1.6-0.9h-5.3V26.3z"/>
<path class="st1" d="M272.5,91.1c-2.4,0-4.6-0.5-6.6-1.4c-2-0.9-3.7-2.2-5.1-3.7c-1.4-1.5-2.5-3.3-3.3-5.2c-0.8-2-1.2-4-1.2-6
	c0-2.1,0.4-4.1,1.2-6.1c0.8-2,1.9-3.7,3.4-5.2c1.5-1.5,3.2-2.7,5.2-3.6c2-0.9,4.2-1.3,6.6-1.3c2.4,0,4.6,0.5,6.6,1.4
	c2,0.9,3.7,2.2,5.1,3.7c1.4,1.5,2.5,3.3,3.3,5.2c0.8,2,1.1,4,1.1,6c0,2.1-0.4,4.1-1.2,6.1c-0.8,1.9-1.9,3.6-3.4,5.1
	c-1.4,1.5-3.2,2.7-5.2,3.6C277.1,90.7,274.9,91.1,272.5,91.1z M265.2,74.9c0,1.1,0.2,2.1,0.5,3.1c0.3,1,0.8,1.9,1.4,2.7
	c0.6,0.8,1.4,1.4,2.3,1.9c0.9,0.5,2,0.7,3.3,0.7c1.3,0,2.4-0.2,3.3-0.7c0.9-0.5,1.7-1.1,2.3-1.9c0.6-0.8,1-1.7,1.3-2.7
	c0.3-1,0.4-2.1,0.4-3.1c0-1.1-0.2-2.1-0.5-3.1c-0.3-1-0.8-1.9-1.4-2.7c-0.6-0.8-1.4-1.4-2.3-1.8c-0.9-0.5-2-0.7-3.2-0.7
	c-1.3,0-2.4,0.2-3.3,0.7c-0.9,0.5-1.7,1.1-2.3,1.9c-0.6,0.8-1,1.7-1.3,2.7C265.4,72.8,265.2,73.9,265.2,74.9z"/>
<path class="st1" d="M256.2,121.7c0-2,0.4-3.9,1.1-5.8c0.7-1.9,1.8-3.6,3.2-5.1c1.4-1.5,3.1-2.7,5.1-3.6c2-0.9,4.3-1.4,6.9-1.4
	c3.1,0,5.8,0.6,8,1.9c2.3,1.3,4,3,5.1,5.1l-6.7,4.8c-0.3-0.8-0.7-1.4-1.2-1.9c-0.5-0.5-1-0.9-1.6-1.2c-0.6-0.3-1.2-0.5-1.9-0.6
	c-0.6-0.1-1.3-0.2-1.9-0.2c-1.3,0-2.4,0.2-3.3,0.7c-0.9,0.5-1.7,1.1-2.3,1.9c-0.6,0.8-1,1.7-1.3,2.7c-0.3,1-0.4,2-0.4,3
	c0,1.1,0.2,2.2,0.5,3.2c0.3,1,0.8,1.9,1.4,2.7c0.6,0.8,1.4,1.4,2.3,1.9c0.9,0.5,1.9,0.7,3.1,0.7c0.6,0,1.2-0.1,1.8-0.2
	c0.6-0.1,1.2-0.4,1.8-0.7c0.6-0.3,1.1-0.7,1.6-1.2c0.5-0.5,0.8-1.1,1.1-1.8l7.2,4.3c-0.5,1.2-1.2,2.2-2.2,3.2
	c-1,0.9-2.1,1.7-3.3,2.3c-1.2,0.6-2.6,1.1-4,1.4c-1.4,0.3-2.8,0.5-4.2,0.5c-2.4,0-4.5-0.5-6.5-1.4c-2-0.9-3.7-2.2-5.1-3.8
	c-1.4-1.6-2.5-3.3-3.3-5.3C256.6,125.7,256.2,123.7,256.2,121.7z"/>
<path class="st1" d="M210.9,43.8V26.9l-5.4,11.9h-4.7l-5.4-11.9v16.9h-8.8v-32h9.6l6.9,15l6.9-15h9.6v32H210.9z"/>
<path class="st1" d="M235.5,11.8h8l11.1,32h-8.9l-1.9-6.3h-8.5l-1.9,6.3h-9L235.5,11.8z M242.4,31.7l-2.8-9.9l-3,9.9H242.4z"/>
<path class="st1" d="M197.1,58.9h8l11.1,32h-8.9l-1.9-6.3h-8.5l-1.9,6.3h-9L197.1,58.9z M203.9,78.7l-2.8-9.9l-3,9.9H203.9z"/>
<path class="st1" d="M249.8,66.5h-9.2v24.3h-8.8V66.5h-9.2v-7.7h27.2V66.5z"/>
<path class="st1" d="M197.6,122.2v15.7h-8.8v-32h6.8l12.8,16.3v-16.3h8.8v32h-7L197.6,122.2z"/>
<path class="st1" d="M235.2,105.9h8l11.1,32h-8.9l-1.9-6.3h-8.5l-1.9,6.3h-9L235.2,105.9z M242,125.8l-2.8-9.9l-3,9.9H242z"/>
<text transform="matrix(1.0659 0 0 1 185.9082 199.1709)"><tspan x="0" y="0" class="st0 st2 st3">trči </tspan><tspan x="0" y="19.1" class="st0 st4 st3">humanitarni </tspan><tspan x="0" y="38.1" class="st0 st2 st3">krug</tspan></text>
<line class="st5" x1="184.4" y1="164" x2="288.8" y2="164"/>
</svg>
